<?xml version="1.0" encoding="utf-8"?>
<!-- Generator: Adobe Illustrator 24.0.0, SVG Export Plug-In . SVG Version: 6.00 Build 0)  -->
<svg version="1.1" id="Layer_1" xmlns="http://www.w3.org/2000/svg" xmlns:xlink="http://www.w3.org/1999/xlink" x="0px" y="0px"
	 viewBox="0 0 91 90.7" enable-background="new 0 0 91 90.7" xml:space="preserve">
<g id="XMLID_373_">
	<path id="XMLID_379_" fill="#F11420" d="M15.5,90.7h60.2c8.4,0,15.2-6.8,15.2-15.2V15.2C91,6.8,84.2,0,75.8,0H15.5
		C7.1,0,0.3,6.8,0.3,15.2v60.2C0.3,83.8,7.1,90.7,15.5,90.7z"/>
	<g id="XMLID_374_">
		<rect id="XMLID_378_" x="34" y="16.3" fill="#FFFFFF" width="23.2" height="11.6"/>
		<polygon id="XMLID_377_" fill="#FFFFFF" points="57.3,27.9 57.3,39.5 45.7,39.5 45.7,51.1 57.3,51.1 57.3,74.4 68.9,74.4 
			68.9,27.9 		"/>
		<rect id="XMLID_376_" x="22.4" y="27.9" fill="#FFFFFF" width="11.6" height="23.2"/>
		<rect id="XMLID_375_" x="22.4" y="62.7" fill="#FFFFFF" width="11.6" height="11.6"/>
	</g>
</g>
</svg>
